<svg xmlns="http://www.w3.org/2000/svg" xmlns:xlink="http://www.w3.org/1999/xlink" width="1920" zoomAndPan="magnify" viewBox="0 0 1440 809.999993" height="1080" preserveAspectRatio="xMidYMid meet" version="1.2"><defs><clipPath id="a566097ab0"><path d="M 322.167969 406.304688 L 1118 406.304688 L 1118 641.8125 L 322.167969 641.8125 Z M 322.167969 406.304688 "/></clipPath><clipPath id="c67ec18d4c"><path d="M 601.757812 166.753906 L 1081.890625 166.753906 L 1081.890625 402.261719 L 601.757812 402.261719 Z M 601.757812 166.753906 "/></clipPath></defs><g id="27d7571b00"><rect x="0" width="1440" y="0" height="809.999993" style="fill:none;fill-opacity:1;stroke:none;"/><g clip-rule="nonzero" clip-path="url(#a566097ab0)"><path style=" stroke:none;fill-rule:evenodd;fill:#3d3f93;fill-opacity:1;" d="M 823.871094 166.3125 C 805.5 171.472656 766.785156 202.925781 726.707031 245.261719 C 707.917969 265.105469 685.535156 293.507812 686.566406 296.195312 C 687.585938 298.855469 707.890625 294.34375 739.175781 284.503906 C 747.207031 281.980469 760.628906 277.761719 769.003906 275.136719 L 788.136719 269.132812 C 823.835938 257.929688 865.4375 248.453125 889.3125 246.085938 C 895.238281 245.496094 896.992188 245.125 896.75 244.5 C 896.019531 242.59375 876.964844 209.898438 873.105469 203.925781 C 863.648438 189.300781 852.710938 176.546875 845.164062 171.347656 C 837.964844 166.390625 830.167969 164.546875 823.871094 166.3125 M 913.496094 260.933594 C 878.898438 261.804688 839.164062 270.414062 772.113281 291.570312 C 713.382812 310.101562 701.128906 313.304688 689.058594 313.304688 C 685.234375 313.304688 682.421875 312.980469 680.949219 312.367188 C 679.714844 311.847656 678.566406 311.558594 678.402344 311.722656 C 677.648438 312.480469 676.953125 324.941406 677.273438 331.949219 C 678.582031 360.425781 688.628906 380.511719 705.957031 389.292969 C 713.089844 392.90625 724.945312 395.335938 735.492188 395.339844 C 752.226562 395.34375 777.464844 390.214844 812.507812 379.691406 C 881.070312 359.097656 896.253906 355.253906 922.820312 351.78125 C 937.820312 349.820312 957.273438 349.832031 969.117188 351.804688 C 978.203125 353.320312 989.070312 356.609375 996.796875 360.179688 C 1011.851562 367.132812 1028.726562 382.746094 1034.769531 395.3125 C 1036.089844 398.054688 1037.324219 400.300781 1037.511719 400.304688 C 1038.445312 400.320312 1035.851562 381.09375 1033.066406 367.375 C 1028.957031 347.109375 1021.050781 320.167969 1016.625 311.332031 C 1007.722656 293.5625 994.78125 280.640625 977.507812 272.269531 C 960.152344 263.859375 939.875 260.269531 913.496094 260.933594 M 375.304688 407.140625 C 363.75 409.25 353.921875 413.644531 345.265625 420.582031 C 335.367188 428.511719 327.742188 440.480469 324.394531 453.34375 C 321.992188 462.585938 321.710938 475.953125 323.722656 485.398438 C 326.324219 497.628906 333.125 509.78125 341.800781 517.714844 C 354.839844 529.628906 372.5 535.378906 392.703125 534.28125 C 405.007812 533.613281 415.214844 530.914062 426.109375 525.453125 L 431.546875 522.730469 L 431.546875 499.863281 L 423 504.175781 C 412.535156 509.457031 405.21875 511.863281 396.835938 512.789062 C 367.945312 515.964844 346.429688 497.859375 346.410156 470.347656 C 346.402344 462.632812 347.710938 456.722656 350.898438 450.027344 C 354.183594 443.132812 361.308594 435.757812 367.871094 432.457031 C 376.292969 428.222656 380.328125 427.34375 391.152344 427.371094 C 403.492188 427.40625 409.382812 428.882812 421.757812 435.035156 L 430.304688 439.285156 L 430.304688 416.390625 L 425.488281 414.164062 C 409.304688 406.683594 391.476562 404.191406 375.304688 407.140625 M 879.003906 469.902344 L 879.003906 532.683594 L 900.140625 532.683594 L 899.984375 470.070312 L 899.824219 407.457031 L 889.414062 407.289062 L 879.003906 407.117188 Z M 922.300781 407.5625 C 922.074219 407.789062 921.886719 436.035156 921.886719 470.332031 L 921.886719 532.683594 L 943.015625 532.683594 L 943.015625 407.148438 L 932.867188 407.148438 C 927.28125 407.148438 922.527344 407.335938 922.300781 407.5625 M 655.261719 439.273438 C 635.480469 461.429688 634.765625 462.289062 634.765625 463.984375 L 634.765625 465.566406 L 647.195312 465.566406 L 647.203125 486.539062 C 647.207031 514.652344 647.988281 518.875 654.464844 525.871094 C 662.21875 534.25 674.144531 536.523438 688.503906 532.363281 C 691.484375 531.5 694.734375 530.371094 695.730469 529.859375 L 697.535156 528.925781 L 697.535156 520.171875 C 697.535156 513.40625 697.359375 511.496094 696.757812 511.757812 C 696.332031 511.941406 693.882812 513.011719 691.320312 514.140625 C 687.183594 515.957031 686.027344 516.191406 681.019531 516.203125 C 675.84375 516.214844 675.199219 516.078125 673.183594 514.542969 C 668.742188 511.15625 668.660156 510.671875 668.457031 486.851562 L 668.28125 465.566406 L 695.671875 465.566406 L 695.671875 448.785156 L 668.328125 448.785156 L 668.328125 437.601562 C 668.328125 428.945312 668.148438 426.414062 667.535156 426.414062 C 667.097656 426.414062 661.574219 432.199219 655.261719 439.273438 M 484.992188 447.578125 C 462.765625 450.132812 448.085938 465.335938 446.703125 487.230469 C 445.792969 501.625 449.707031 513.054688 458.539062 521.808594 C 465.535156 528.738281 473.40625 532.558594 483.726562 534.019531 C 493.15625 535.355469 502.265625 533.796875 511.515625 529.257812 C 523.515625 523.375 530.289062 514.160156 533.191406 499.773438 C 535.101562 490.3125 533.519531 478 529.324219 469.707031 C 521.652344 454.53125 503.46875 445.453125 484.992188 447.578125 M 592.195312 447.621094 C 585.636719 448.65625 580.882812 451.128906 575.28125 456.429688 L 572 459.53125 L 571.925781 455.246094 C 571.886719 452.890625 571.816406 450.542969 571.773438 450.027344 C 571.703125 449.246094 569.960938 449.070312 560.96875 448.925781 L 550.246094 448.757812 L 550.246094 532.683594 L 571.875 532.683594 L 571.945312 504.644531 L 572.011719 476.601562 L 573.832031 474.304688 C 576.367188 471.105469 580.800781 467.109375 583.183594 465.878906 C 588.441406 463.160156 595.699219 464.304688 599.316406 468.425781 C 603.460938 473.144531 603.355469 472.257812 603.5625 503.941406 L 603.75 532.683594 L 624.824219 532.683594 L 624.800781 504.253906 C 624.777344 472.675781 624.464844 469.136719 621.121094 462.507812 C 618.8125 457.9375 614.46875 453.054688 610.796875 450.902344 C 605.863281 448.011719 598.238281 446.664062 592.195312 447.621094 M 751.769531 447.609375 C 744.449219 448.960938 738.980469 454.019531 733.03125 464.945312 L 730.492188 469.605469 L 730.480469 459.179688 L 730.472656 448.757812 L 719.753906 448.925781 L 709.03125 449.097656 L 708.875 490.890625 L 708.714844 532.683594 L 730.472656 532.683594 L 730.472656 511.03125 C 730.472656 487.261719 730.558594 486.617188 734.617188 479.15625 C 738.300781 472.386719 746.113281 467.453125 751.574219 468.441406 C 754.144531 468.910156 759.167969 471.328125 761.917969 473.421875 C 762.972656 474.230469 764.09375 474.886719 764.40625 474.886719 C 765.183594 474.886719 772.296875 456.421875 771.816406 455.644531 C 771.601562 455.300781 769.660156 453.757812 767.496094 452.210938 C 761.695312 448.074219 756.882812 446.664062 751.769531 447.609375 M 812.507812 447.597656 C 793.628906 449.558594 779.027344 462.296875 775.171875 480.171875 C 774.039062 485.429688 774.191406 497.222656 775.460938 502.542969 C 779.601562 519.855469 793.386719 531.679688 812.207031 534.054688 C 830.785156 536.402344 849.683594 527.070312 856.882812 512 C 859.777344 505.933594 860.9375 501.253906 861.398438 493.726562 C 862.078125 482.644531 859.886719 473.855469 854.339844 465.429688 C 846.0625 452.855469 829.570312 445.824219 812.507812 447.597656 M 994.839844 447.59375 C 989.582031 448.253906 986.203125 449.234375 982.152344 451.28125 C 968.640625 458.101562 960.515625 472.660156 960.4375 490.1875 C 960.347656 511.523438 971.054688 526.820312 990.246094 532.773438 C 996.710938 534.777344 1009.679688 534.789062 1017.78125 532.796875 C 1023.515625 531.382812 1030.742188 528.335938 1034.65625 525.675781 L 1036.96875 524.105469 L 1036.941406 516.199219 C 1036.925781 511.851562 1036.785156 508.167969 1036.632812 508.015625 C 1036.480469 507.863281 1034.71875 508.84375 1032.722656 510.195312 C 1024.140625 516 1018.246094 517.933594 1008.890625 518.015625 C 997.882812 518.113281 992.316406 515.769531 987.058594 508.808594 C 985.082031 506.191406 982.160156 498.648438 982.167969 496.171875 C 982.167969 495.5625 988.195312 495.398438 1010.226562 495.398438 L 1038.28125 495.398438 L 1037.925781 487.785156 C 1037.285156 474.144531 1033.75 464.945312 1026.261719 457.429688 C 1018.5625 449.699219 1006.972656 446.074219 994.839844 447.59375 M 1097.394531 447.59375 C 1093.351562 448.34375 1090.597656 449.734375 1087.445312 452.625 C 1084.402344 455.410156 1079.703125 462.09375 1077.164062 467.253906 L 1075.699219 470.226562 L 1075.53125 459.507812 L 1075.359375 448.785156 L 1054.257812 448.785156 L 1054.257812 532.683594 L 1075.390625 532.683594 L 1075.402344 513.886719 C 1075.414062 493.144531 1075.824219 488.730469 1078.292969 482.554688 C 1080.699219 476.550781 1086.746094 470.441406 1091.722656 468.996094 C 1094.988281 468.046875 1095.550781 468.042969 1098.652344 468.945312 C 1100.511719 469.484375 1103.882812 471.167969 1106.144531 472.683594 C 1109.667969 475.046875 1110.3125 475.292969 1110.636719 474.386719 C 1110.847656 473.808594 1112.523438 469.429688 1114.367188 464.660156 L 1117.710938 455.984375 L 1115.351562 453.941406 C 1112.410156 451.394531 1105.007812 447.730469 1102.113281 447.382812 C 1100.917969 447.242188 1098.792969 447.335938 1097.394531 447.59375 M 995.664062 463.34375 C 989.847656 464.90625 985.546875 469.824219 983.484375 477.265625 L 982.246094 481.722656 L 1018.355469 481.722656 L 1017.925781 478.773438 C 1016.179688 466.800781 1006.847656 460.335938 995.664062 463.34375 M 484.683594 464.570312 C 478.726562 466.453125 474.835938 469.800781 471.933594 475.539062 C 467.726562 483.851562 467.753906 497.660156 471.992188 506.0625 C 474.398438 510.832031 476.773438 513.421875 480.753906 515.628906 C 483.769531 517.296875 484.585938 517.457031 489.964844 517.453125 C 494.820312 517.445312 496.445312 517.183594 499.117188 515.984375 C 507.125 512.378906 511.714844 503.109375 511.714844 490.539062 C 511.714844 476.910156 506.519531 467.894531 496.953125 464.941406 C 492.417969 463.539062 488.332031 463.417969 484.683594 464.570312 M 812.195312 464.570312 C 808.183594 465.839844 806.078125 467.160156 803.351562 470.117188 C 800.054688 473.695312 798.335938 477.109375 797.246094 482.257812 C 795.566406 490.171875 796.605469 500.34375 799.71875 506.484375 C 801.972656 510.933594 806.285156 514.957031 810.527344 516.5625 C 815.355469 518.390625 822.644531 518.023438 827.136719 515.726562 C 835.316406 511.539062 839.242188 503.246094 839.222656 490.183594 C 839.207031 480.003906 836.824219 473.519531 831.3125 468.671875 C 826.503906 464.4375 818.230469 462.664062 812.195312 464.570312 M 366.699219 565.476562 C 366.546875 565.726562 363.988281 571.527344 361.015625 578.363281 C 358.042969 585.199219 354.265625 593.867188 352.621094 597.628906 C 341.863281 622.234375 336.285156 635.023438 336.003906 635.730469 C 335.757812 636.347656 336.394531 636.5 338.640625 636.351562 L 341.597656 636.160156 L 351.792969 612.542969 L 368.207031 612.386719 L 384.625 612.230469 L 386.398438 616.425781 C 387.375 618.734375 389.734375 624.1875 391.640625 628.546875 L 395.113281 636.46875 L 397.792969 636.46875 C 399.265625 636.46875 400.472656 636.292969 400.472656 636.074219 C 400.472656 635.722656 394.148438 621.109375 379.527344 587.683594 C 369.785156 565.40625 369.800781 565.4375 368.34375 565.222656 C 367.589844 565.109375 366.851562 565.222656 366.699219 565.476562 M 792.789062 565.851562 C 786.886719 567.359375 781.636719 570.429688 776.882812 575.15625 C 769.425781 582.574219 766.316406 590.066406 766.28125 600.734375 C 766.242188 612.050781 769.007812 619.09375 776.4375 626.597656 C 784.359375 634.597656 792.039062 637.484375 803.808594 636.894531 C 810.765625 636.546875 814.625 635.597656 821.351562 632.589844 L 825.558594 630.710938 L 825.558594 624.644531 L 821.984375 626.429688 C 805.886719 634.480469 790.714844 633.421875 780.851562 623.558594 C 774.78125 617.488281 772.113281 610.578125 772.113281 600.941406 C 772.113281 585.226562 782.316406 572.582031 796.632812 570.554688 C 803.851562 569.53125 813.636719 571.417969 821.328125 575.316406 C 822.949219 576.136719 824.421875 576.808594 824.605469 576.808594 C 824.789062 576.808594 824.9375 575.445312 824.9375 573.777344 C 824.9375 570.753906 824.929688 570.746094 821.984375 569.488281 C 815.222656 566.609375 810.414062 565.53125 803.183594 565.273438 C 798.464844 565.105469 794.9375 565.300781 792.789062 565.851562 M 680.757812 569.972656 L 680.757812 574.324219 L 685.726562 574.324219 L 685.726562 565.621094 L 680.757812 565.621094 Z M 1005.785156 599.785156 L 1005.785156 633.949219 L 1010.289062 635.363281 C 1016.277344 637.246094 1026.191406 637.355469 1031.265625 635.597656 C 1036.242188 633.871094 1042.292969 627.664062 1044.351562 622.175781 C 1046.316406 616.941406 1046.496094 607.507812 1044.726562 602.433594 C 1043.253906 598.203125 1039.488281 593.46875 1035.949219 591.394531 C 1029.035156 587.34375 1018.75 588.671875 1012.777344 594.386719 L 1010.757812 596.316406 L 1010.757812 565.621094 L 1005.785156 565.621094 Z M 1056.125 569.972656 L 1056.125 574.324219 L 1061.09375 574.324219 L 1061.09375 565.621094 L 1056.125 565.621094 Z M 1074.769531 601.046875 L 1074.769531 636.46875 L 1079.738281 636.46875 L 1079.738281 565.621094 L 1074.769531 565.621094 Z M 985.683594 568.574219 C 984.871094 569.855469 982.632812 573.347656 980.703125 576.335938 C 978.773438 579.324219 977.195312 581.910156 977.195312 582.085938 C 977.195312 582.261719 977.964844 582.398438 978.90625 582.394531 C 980.621094 582.386719 980.964844 582.058594 992.6875 569.195312 L 995.378906 566.246094 L 991.265625 566.246094 C 987.191406 566.246094 987.144531 566.265625 985.683594 568.574219 M 940.257812 576.5 C 938.695312 578.550781 938.566406 579.15625 938.609375 584.269531 L 938.652344 589.816406 L 932.597656 589.992188 L 926.546875 590.171875 L 926.546875 593.898438 L 932.589844 594.078125 L 938.632812 594.253906 L 938.59375 612.257812 C 938.558594 628.660156 938.65625 630.433594 939.695312 632.210938 C 942.335938 636.71875 947.6875 638.171875 954.425781 636.210938 C 957.925781 635.195312 957.929688 635.1875 957.929688 632.722656 C 957.929688 631.367188 957.773438 630.253906 957.582031 630.253906 C 957.390625 630.253906 955.84375 630.710938 954.140625 631.265625 C 950.601562 632.425781 946.480469 632.121094 944.949219 630.59375 C 944.089844 629.734375 943.90625 627.070312 943.636719 611.902344 L 943.328125 594.210938 L 955.445312 594.210938 L 955.445312 589.859375 L 943.675781 589.859375 L 943.5 582.296875 C 943.390625 577.476562 943.078125 574.652344 942.640625 574.507812 C 942.261719 574.382812 941.191406 575.28125 940.257812 576.5 M 361.050781 591.125 C 357.347656 599.683594 354.457031 606.820312 354.621094 606.984375 C 354.789062 607.152344 361.066406 607.210938 368.570312 607.117188 L 382.21875 606.949219 L 375.414062 591.257812 C 371.671875 582.628906 368.421875 575.566406 368.191406 575.566406 C 367.964844 575.566406 364.75 582.566406 361.050781 591.125 M 416.246094 589.203125 C 412.316406 589.832031 408.042969 592.890625 406.21875 596.386719 C 404.933594 598.847656 404.964844 604.546875 406.277344 607.074219 C 407.699219 609.816406 410.273438 611.621094 417.875 615.195312 C 425.679688 618.871094 427.507812 620.589844 427.507812 624.273438 C 427.507812 627.785156 425.976562 629.90625 422.484375 631.238281 C 419.9375 632.210938 419.066406 632.257812 415.285156 631.609375 C 412.921875 631.203125 409.601562 630.167969 407.90625 629.308594 L 404.824219 627.75 L 404.824219 630.445312 C 404.824219 633 404.964844 633.210938 407.464844 634.453125 C 421.355469 641.351562 435.585938 633.359375 431.914062 620.722656 C 430.617188 616.261719 428.207031 614.199219 419.480469 610.078125 C 411.902344 606.5 410.535156 605.355469 410.015625 602.152344 C 409.503906 599.023438 411.058594 596.476562 414.484375 594.816406 C 418.101562 593.066406 421.554688 593.429688 427.085938 596.136719 C 429.246094 597.195312 431.085938 597.960938 431.179688 597.84375 C 431.269531 597.726562 431.226562 596.464844 431.074219 595.042969 C 430.816406 592.578125 430.648438 592.394531 427.292969 590.921875 C 423.234375 589.144531 419.875 588.621094 416.246094 589.203125 M 450.8125 589.210938 C 442.347656 590.835938 437.277344 599.601562 440.804688 606.507812 C 442.539062 609.910156 443.894531 610.921875 452.222656 615.03125 C 460.675781 619.199219 462.167969 620.652344 462.167969 624.726562 C 462.167969 626.964844 461.828125 627.683594 459.957031 629.398438 C 458.703125 630.546875 456.726562 631.617188 455.382812 631.867188 C 452.625 632.382812 446.695312 631.296875 442.921875 629.578125 C 439.273438 627.917969 438.898438 628.027344 439.121094 630.707031 C 439.296875 632.820312 439.609375 633.171875 442.742188 634.769531 C 447.273438 637.078125 453.664062 637.691406 458.058594 636.230469 C 461.417969 635.113281 465.230469 631.691406 466.3125 628.816406 C 467.921875 624.542969 466.550781 618.011719 463.460938 615.234375 C 462.828125 614.664062 460.210938 613.179688 457.648438 611.933594 C 445.503906 606.042969 444.632812 605.34375 444.609375 601.453125 C 444.59375 598.257812 446.449219 595.796875 449.863281 594.496094 C 453.390625 593.148438 457.074219 593.648438 461.765625 596.113281 C 463.671875 597.117188 465.34375 597.9375 465.480469 597.9375 C 465.617188 597.9375 465.726562 596.71875 465.726562 595.226562 C 465.726562 592.523438 465.71875 592.511719 462.152344 590.949219 C 458.175781 589.207031 454.09375 588.582031 450.8125 589.210938 M 490.414062 589.28125 C 484.164062 590.292969 478.1875 595.605469 475.589844 602.445312 C 474.398438 605.589844 474.117188 607.507812 474.117188 612.542969 C 474.121094 620.675781 475.722656 625.167969 480.429688 630.253906 C 485.226562 635.433594 488.5625 636.78125 496.582031 636.78125 C 502.742188 636.78125 503.003906 636.722656 507.769531 634.253906 L 512.648438 631.726562 L 512.839844 628.40625 L 513.03125 625.082031 L 510.8125 626.773438 C 509.589844 627.707031 506.988281 629.21875 505.027344 630.140625 C 502.058594 631.527344 500.628906 631.804688 496.488281 631.777344 C 490.929688 631.746094 488.988281 630.996094 484.90625 627.308594 C 481.644531 624.359375 479.476562 619.972656 478.992188 615.34375 L 478.601562 611.613281 L 513.75 611.613281 L 513.429688 607.726562 C 512.417969 595.570312 502.1875 587.367188 490.414062 589.28125 M 532.226562 589.214844 C 524.613281 590.691406 519.578125 598.074219 521.597656 604.808594 C 522.839844 608.957031 525.148438 610.964844 532.84375 614.578125 C 536.773438 616.425781 540.757812 618.660156 541.695312 619.542969 C 543.964844 621.6875 544.449219 624.53125 543.046875 627.484375 C 540.664062 632.503906 532.992188 633.429688 524.941406 629.660156 L 521.039062 627.835938 L 521.039062 630.464844 C 521.039062 632.722656 521.300781 633.25 522.882812 634.183594 C 527.394531 636.847656 534.320312 637.796875 539.261719 636.425781 C 541.996094 635.667969 546.148438 632.148438 547.578125 629.386719 C 548.121094 628.339844 548.5625 626.082031 548.5625 624.359375 C 548.5625 618.285156 544.960938 613.980469 537.367188 610.964844 C 529.136719 607.699219 526.011719 604.96875 526.011719 601.046875 C 526.011719 598.03125 527.777344 595.832031 531.273438 594.496094 C 534.785156 593.152344 538.375 593.636719 543.238281 596.101562 C 545.214844 597.105469 546.898438 597.925781 546.984375 597.929688 C 547.070312 597.933594 547.140625 596.71875 547.140625 595.226562 C 547.140625 592.523438 547.132812 592.511719 543.566406 590.949219 C 539.585938 589.207031 535.5 588.582031 532.226562 589.214844 M 566.566406 589.289062 C 556.59375 591.191406 552.289062 603.414062 559.335938 609.8125 C 561.339844 611.628906 562.519531 612.296875 570.300781 615.996094 C 576.691406 619.035156 578.214844 620.652344 578.214844 624.386719 C 578.214844 631.617188 570.1875 634.046875 559.898438 629.929688 C 557.785156 629.082031 555.847656 628.390625 555.597656 628.390625 C 555.347656 628.390625 555.230469 629.441406 555.335938 630.722656 C 555.515625 632.875 555.800781 633.1875 559.089844 634.832031 C 563.347656 636.960938 569.347656 637.648438 573.515625 636.480469 C 581.910156 634.128906 585.785156 624.308594 581.101562 617.234375 C 579.710938 615.132812 578.160156 614.113281 571.070312 610.648438 C 566.457031 608.390625 562.261719 605.945312 561.746094 605.210938 C 560.230469 603.046875 560.550781 598.964844 562.410156 596.753906 C 565.546875 593.03125 571.621094 592.773438 577.867188 596.109375 C 579.753906 597.117188 581.441406 597.9375 581.621094 597.9375 C 581.796875 597.9375 581.941406 596.71875 581.941406 595.226562 C 581.941406 592.523438 581.933594 592.511719 578.367188 590.949219 C 574.222656 589.132812 570.289062 588.582031 566.566406 589.289062 M 608.886719 589.265625 C 604.261719 589.90625 600.296875 592.128906 596.535156 596.195312 C 585.722656 607.875 589.085938 628.234375 602.945312 635.039062 C 606.113281 636.59375 607.152344 636.78125 612.707031 636.777344 C 618.042969 636.777344 619.359375 636.5625 622.027344 635.253906 C 633.527344 629.605469 638.378906 614.445312 632.675781 601.988281 C 628.46875 592.800781 619.1875 587.835938 608.886719 589.265625 M 663.496094 589.277344 C 660.320312 589.949219 656.539062 592.921875 653.449219 597.175781 L 650.613281 601.074219 L 650.4375 595.46875 L 650.257812 589.859375 L 645.332031 589.859375 L 645.332031 636.46875 L 650.304688 636.46875 L 650.304688 606.550781 L 652.257812 603.644531 C 658.738281 593.996094 663.367188 592.140625 669.683594 596.660156 L 673.109375 599.113281 L 675.757812 594.402344 L 674.371094 593.144531 C 670.75 589.859375 667.019531 588.53125 663.496094 589.277344 M 709.261719 589.257812 C 705.996094 589.800781 700.921875 591.902344 699.269531 593.398438 C 698.570312 594.03125 698.15625 595.289062 698.15625 596.785156 L 698.15625 599.167969 L 701.417969 597.097656 C 705.6875 594.394531 708.175781 593.589844 712.265625 593.589844 C 718.691406 593.589844 721.144531 596.3125 721.644531 604 L 721.9375 608.503906 L 719.71875 608.503906 C 715.992188 608.503906 708.59375 610.308594 705.082031 612.074219 C 696.066406 616.605469 693.101562 626.492188 698.808594 632.992188 C 699.820312 634.144531 701.601562 635.539062 702.761719 636.089844 C 706.964844 638.085938 714.363281 636.859375 719.183594 633.367188 L 721.773438 631.492188 L 721.773438 633.089844 C 721.773438 637.089844 724.246094 638.113281 728.480469 635.871094 C 732.691406 633.636719 733.695312 632.535156 733.472656 630.394531 L 733.269531 628.433594 L 730.535156 630.277344 C 729.03125 631.289062 727.5625 632.121094 727.273438 632.121094 C 726.980469 632.121094 726.746094 624.972656 726.746094 616.238281 C 726.746094 606.722656 726.46875 599.261719 726.058594 597.632812 C 724.476562 591.347656 717.535156 587.886719 709.261719 589.257812 M 849.867188 589.3125 C 843.113281 590.445312 836.742188 595.640625 833.53125 602.628906 C 832.324219 605.253906 832.113281 606.757812 832.101562 612.855469 C 832.085938 619.601562 832.191406 620.226562 834.027344 624.039062 C 836.414062 629.007812 840.308594 633.019531 844.824219 635.160156 C 847.761719 636.554688 849.070312 636.78125 854.144531 636.78125 C 861.097656 636.78125 864.167969 635.65625 868.746094 631.433594 C 878.234375 622.691406 879.210938 607.574219 870.988281 596.738281 C 868.628906 593.632812 862.6875 589.996094 859.222656 589.539062 L 854.765625 588.953125 C 853.914062 588.84375 851.707031 589.003906 849.867188 589.3125 M 902.734375 589.296875 C 899.292969 589.953125 896.363281 591.78125 893.621094 594.988281 L 891.433594 597.542969 L 891.433594 589.859375 L 886.460938 589.859375 L 886.460938 636.46875 L 891.433594 636.46875 L 891.433594 603.628906 L 893.472656 600.957031 C 894.59375 599.484375 896.710938 597.441406 898.175781 596.410156 C 900.414062 594.835938 901.539062 594.507812 905.300781 594.324219 C 909.164062 594.132812 910.0625 594.300781 911.941406 595.554688 C 913.183594 596.386719 914.785156 598.34375 915.671875 600.113281 C 917.195312 603.160156 917.230469 603.542969 917.417969 619.847656 L 917.609375 636.46875 L 922.59375 636.46875 L 922.394531 618.914062 L 922.195312 601.355469 L 920.421875 597.738281 C 918.714844 594.265625 915.394531 591.074219 912.253906 589.890625 C 910.046875 589.058594 905.488281 588.773438 902.734375 589.296875 M 974.523438 589.265625 C 972.878906 589.542969 969.941406 590.597656 967.996094 591.609375 C 964.546875 593.40625 964.453125 593.523438 964.269531 596.296875 L 964.078125 599.144531 L 967.203125 597.042969 C 971.457031 594.175781 974.132812 593.40625 978.792969 593.703125 C 985.007812 594.101562 987.128906 596.953125 987.136719 604.929688 C 987.140625 608.5 987.136719 608.503906 985.25 608.503906 C 978.820312 608.503906 968.632812 612.195312 965.265625 615.746094 C 960.527344 620.746094 960.488281 629.863281 965.191406 634.117188 C 969.679688 638.175781 977.640625 637.960938 984.246094 633.601562 C 985.558594 632.734375 986.710938 632.117188 986.800781 632.230469 C 986.894531 632.339844 987.234375 633.25 987.558594 634.25 C 988.722656 637.855469 991.058594 637.910156 996.222656 634.460938 C 998.675781 632.820312 999.296875 632.042969 999.453125 630.410156 C 999.5625 629.300781 999.5 628.390625 999.316406 628.390625 C 999.132812 628.390625 997.746094 629.265625 996.234375 630.332031 C 994.71875 631.398438 993.171875 632.082031 992.796875 631.847656 C 992.328125 631.558594 992.109375 626.226562 992.097656 614.835938 C 992.085938 599.886719 991.96875 597.992188 990.90625 595.648438 C 989.378906 592.292969 985.910156 590 981.179688 589.226562 C 979.160156 588.894531 977.507812 588.65625 977.507812 588.695312 C 977.507812 588.730469 976.164062 588.988281 974.523438 589.265625 M 680.757812 613.164062 L 680.757812 636.46875 L 685.726562 636.46875 L 685.726562 589.859375 L 680.757812 589.859375 Z M 1056.125 613.164062 L 1056.125 636.46875 L 1061.09375 636.46875 L 1061.09375 589.859375 L 1056.125 589.859375 Z M 1019.625 594.808594 C 1018.175781 595.46875 1015.589844 597.316406 1013.875 598.921875 L 1010.757812 601.839844 L 1010.757812 630.207031 L 1013.398438 630.988281 C 1017.753906 632.277344 1026.09375 631.984375 1029.539062 630.425781 C 1033.585938 628.59375 1037.742188 624.140625 1039.304688 619.960938 C 1040.890625 615.726562 1041.03125 608.167969 1039.609375 603.988281 C 1038.429688 600.53125 1034.582031 595.988281 1031.652344 594.597656 C 1028.730469 593.210938 1022.921875 593.3125 1019.625 594.808594 M 488.410156 595.183594 C 485.472656 596.707031 482.472656 599.875 481.195312 602.808594 C 479.140625 607.515625 478.40625 607.261719 493.972656 607.261719 L 507.925781 607.261719 L 507.066406 604.402344 C 505.824219 600.265625 503.371094 596.902344 500.554688 595.464844 C 497.503906 593.910156 491.152344 593.761719 488.410156 595.183594 M 605.867188 595.390625 C 599.585938 598.3125 595.613281 605.039062 595.613281 612.765625 C 595.613281 618.574219 596.964844 622.660156 600.039062 626.152344 C 604.722656 631.472656 610.777344 633.21875 617.632812 631.226562 C 622.398438 629.839844 626.570312 625.765625 628.523438 620.585938 C 630.308594 615.859375 630.078125 609.191406 627.960938 604.324219 C 626.375 600.679688 622.347656 596.613281 618.886719 595.167969 C 615.679688 593.828125 608.988281 593.945312 605.867188 595.390625 M 846.628906 595.753906 C 832.066406 603.34375 834.347656 627.660156 849.984375 631.542969 C 858.054688 633.546875 865.835938 629.613281 869.523438 621.667969 C 871.726562 616.917969 871.742188 609.460938 869.5625 604.714844 C 867.441406 600.109375 865.253906 597.699219 861.46875 595.8125 C 857.066406 593.617188 850.777344 593.59375 846.628906 595.753906 M 711.394531 614.011719 C 703.058594 616.890625 698.957031 622.984375 701.710938 628.390625 C 704.550781 633.964844 712.488281 634.082031 719.601562 628.65625 L 721.773438 627 L 721.773438 612.855469 L 718.199219 612.875 C 716.234375 612.886719 713.171875 613.398438 711.394531 614.011719 M 976.644531 614.132812 C 970.417969 616.34375 966.640625 620.390625 966.632812 624.847656 C 966.625 633.160156 976.558594 635.425781 984.710938 628.96875 L 987.140625 627.042969 L 987.140625 612.855469 L 983.566406 612.898438 C 981.601562 612.925781 978.488281 613.480469 976.644531 614.132812 M 873.878906 636.289062 C 874.644531 636.433594 875.90625 636.433594 876.675781 636.289062 C 877.441406 636.140625 876.8125 636.019531 875.277344 636.019531 C 873.738281 636.019531 873.109375 636.140625 873.878906 636.289062 M 877.261719 640.507812 C 877.273438 641.535156 877.414062 641.878906 877.570312 641.273438 C 877.730469 640.671875 877.71875 639.832031 877.546875 639.410156 C 877.378906 638.988281 877.25 639.484375 877.261719 640.507812 "/></g><g clip-rule="nonzero" clip-path="url(#c67ec18d4c)"><path style=" stroke:none;fill-rule:evenodd;fill:#f57001;fill-opacity:1;" d="M 823.683594 167.164062 C 821.273438 167.613281 816.003906 169.648438 811.976562 171.683594 C 781.539062 187.046875 714.199219 251.824219 687.816406 291.113281 C 684.347656 296.277344 684.050781 297.136719 685.703125 297.222656 C 694.730469 297.679688 709.113281 294.054688 751.679688 280.59375 C 801.433594 264.863281 819.082031 259.808594 842.535156 254.578125 C 861.019531 250.453125 884.988281 246.484375 891.398438 246.484375 C 892.527344 246.484375 893.59375 246.253906 893.769531 245.972656 C 893.945312 245.6875 892.617188 242.976562 890.820312 239.945312 C 889.023438 236.914062 885.515625 230.816406 883.023438 226.398438 C 867.242188 198.386719 854.363281 181.238281 843.035156 173.140625 C 836.703125 168.617188 828.855469 166.191406 823.683594 167.164062 M 898.46875 262.371094 C 891.585938 262.90625 874.402344 265.28125 865.105469 266.976562 C 838.785156 271.785156 812.839844 278.6875 768.984375 292.554688 C 719.878906 308.085938 709.855469 310.945312 696.378906 313.269531 C 690.238281 314.328125 682.261719 314.203125 679.425781 313.003906 C 678.097656 312.441406 676.867188 312.132812 676.683594 312.3125 C 676.503906 312.492188 676.089844 316.320312 675.761719 320.816406 C 674.195312 342.351562 679.851562 365.234375 689.765625 377.503906 C 703.207031 394.136719 724.53125 398.769531 759.40625 392.640625 C 775.441406 389.820312 790.597656 385.769531 835.117188 372.398438 C 861.757812 364.394531 865.078125 363.457031 879 359.988281 C 929.488281 347.417969 963.417969 347.3125 991.53125 359.640625 C 999.699219 363.222656 1009.597656 369.949219 1016.433594 376.558594 C 1023.972656 383.847656 1027.925781 388.878906 1031.230469 395.390625 L 1033.917969 400.691406 L 1033.550781 395.179688 C 1032.804688 383.914062 1028.632812 361.765625 1024.191406 345.484375 C 1020.503906 331.964844 1015.253906 316.234375 1012.804688 311.363281 C 1004.238281 294.332031 989.753906 280.171875 972.941406 272.40625 C 962.394531 267.535156 949.355469 264.128906 935.246094 262.5625 C 930.125 261.996094 904.960938 261.863281 898.46875 262.371094 M 376.691406 406.90625 C 347.300781 411.480469 326.328125 433.367188 323.03125 462.902344 C 319.835938 491.507812 334.292969 517.671875 359.066406 528.121094 C 379.5 536.738281 404.753906 535.429688 426.203125 524.644531 L 431.214844 522.128906 L 431.214844 499.390625 L 422.40625 503.816406 C 411.957031 509.066406 407.070312 510.765625 398.765625 512.039062 C 374.042969 515.828125 353.03125 503.152344 347.789062 481.28125 C 343.710938 464.273438 349.144531 446.574219 361.503906 436.605469 C 369.628906 430.050781 378.832031 426.988281 390.421875 426.976562 C 401.664062 426.964844 410.058594 429.136719 422.128906 435.183594 L 429.976562 439.113281 L 429.976562 416.371094 L 425.355469 414.238281 C 409.738281 407.019531 392.558594 404.433594 376.691406 406.90625 M 877.917969 407.628906 L 876.21875 407.882812 L 876.21875 532.03125 L 897.234375 532.03125 L 897.234375 407.800781 L 889.25 407.800781 C 884.859375 407.800781 880.894531 407.703125 880.441406 407.585938 C 879.988281 407.46875 878.855469 407.488281 877.917969 407.628906 M 919.125 407.75 C 918.984375 407.890625 918.867188 435.910156 918.867188 470.019531 L 918.867188 532.03125 L 939.878906 532.03125 L 939.878906 469.914062 C 939.878906 420.660156 939.71875 407.789062 939.109375 407.753906 C 935.65625 407.550781 919.328125 407.546875 919.125 407.75 M 656.449219 436.09375 C 635.125 459.90625 633.320312 462.058594 633.320312 463.6875 L 633.320312 465.28125 L 645.578125 465.28125 L 645.832031 488.613281 C 646.042969 508.308594 646.242188 512.4375 647.121094 515.113281 C 652.839844 532.59375 671.828125 538.617188 692.832031 529.613281 L 695.746094 528.367188 L 695.746094 519.691406 C 695.746094 514.921875 695.597656 511.015625 695.414062 511.015625 C 695.234375 511.015625 693.773438 511.679688 692.171875 512.492188 C 685.621094 515.808594 677.609375 516.921875 673.292969 515.117188 C 670.71875 514.042969 668.160156 511.007812 667.339844 508.0625 C 666.960938 506.695312 666.703125 497.539062 666.699219 485.523438 L 666.695312 465.28125 L 693.890625 465.28125 L 693.890625 448.59375 L 666.695312 448.59375 L 666.695312 437.46875 C 666.695312 428.96875 666.511719 426.347656 665.921875 426.359375 C 665.5 426.371094 661.234375 430.75 656.449219 436.09375 M 477.707031 448.515625 C 455.648438 454.117188 443.039062 474.359375 446.734375 498.226562 C 448.644531 510.5625 454.613281 520.105469 464.4375 526.527344 C 481.75 537.847656 506.820312 535.503906 521.171875 521.222656 C 523.988281 518.421875 526.324219 515.355469 527.773438 512.550781 C 535.289062 498.035156 534.746094 478.894531 526.457031 466.070312 C 521.449219 458.316406 514.421875 452.964844 504.925781 449.652344 C 500.066406 447.960938 498.617188 447.746094 490.855469 447.570312 C 483.984375 447.414062 481.277344 447.605469 477.707031 448.515625 M 586.347656 448.480469 C 581.9375 449.941406 578.234375 452.320312 573.832031 456.515625 L 570.277344 459.90625 L 570.277344 448.59375 L 549.261719 448.59375 L 549.261719 532.03125 L 570.277344 532.03125 L 570.277344 504.609375 C 570.277344 473.417969 569.652344 477.101562 576.09375 470.308594 C 580.019531 466.171875 584.269531 464.058594 588.683594 464.050781 C 592.863281 464.042969 595.441406 465.140625 597.945312 467.992188 C 602.203125 472.835938 602.078125 471.832031 602.285156 503.445312 L 602.472656 532.03125 L 623.515625 532.03125 L 623.285156 501.589844 C 623.078125 474.410156 622.9375 470.789062 621.949219 467.753906 C 619.050781 458.859375 613.125 451.816406 606.300781 449.160156 C 601.320312 447.222656 591.195312 446.878906 586.347656 448.480469 M 744.6875 449.25 C 739.460938 451.859375 735.597656 456.328125 730.550781 465.589844 C 729.441406 467.628906 728.496094 468.878906 728.453125 468.371094 C 728.410156 467.859375 728.394531 463.964844 728.417969 459.71875 C 728.4375 455.46875 728.304688 451.21875 728.117188 450.277344 L 727.78125 448.5625 L 717.613281 448.730469 L 707.445312 448.902344 L 707.179688 532.058594 L 717.6875 531.890625 L 728.191406 531.722656 L 728.347656 510.398438 C 728.515625 487.847656 728.621094 486.878906 731.71875 480.292969 C 733.21875 477.101562 737.648438 472.019531 740.425781 470.304688 C 741.515625 469.632812 743.726562 468.75 745.339844 468.34375 C 749.035156 467.417969 753.0625 468.585938 758.394531 472.136719 C 760.386719 473.464844 762.195312 474.550781 762.410156 474.550781 C 762.628906 474.546875 764.441406 470.320312 766.445312 465.15625 L 770.085938 455.769531 L 767.679688 453.714844 C 766.359375 452.585938 763.363281 450.695312 761.023438 449.511719 C 755.191406 446.558594 750.230469 446.480469 744.6875 449.25 M 804.832031 448.261719 C 789.164062 451.679688 776.859375 463.527344 773.230469 478.683594 C 771.886719 484.304688 771.902344 496.269531 773.261719 502.054688 C 776.746094 516.878906 787.472656 527.722656 803.015625 532.125 C 810.355469 534.203125 821.304688 534.050781 828.914062 531.769531 C 843.488281 527.394531 853.546875 517.25 857.449219 502.980469 C 858.996094 497.34375 858.988281 483.253906 857.441406 477.640625 C 854.328125 466.339844 846.792969 457.121094 836.605469 452.144531 C 833.40625 450.582031 828.789062 448.867188 826.34375 448.332031 C 820.980469 447.15625 810.066406 447.121094 804.832031 448.261719 M 985 448.816406 C 976.574219 451.351562 971.042969 455.183594 965.867188 462.070312 C 959.675781 470.300781 956.742188 481.050781 957.394531 493.09375 C 957.828125 501.089844 958.9375 505.503906 962.1875 512.136719 C 965.667969 519.25 971.816406 525.398438 978.933594 528.886719 C 986.609375 532.652344 990.671875 533.523438 1000.449219 533.507812 C 1012.085938 533.488281 1020.777344 531.183594 1029.964844 525.679688 L 1033.207031 523.734375 L 1033.207031 507.167969 L 1031.507812 508.296875 C 1026.734375 511.472656 1020.355469 514.730469 1016.359375 516.03125 C 1010.5 517.941406 999.4375 518.121094 994.46875 516.390625 C 987.800781 514.0625 982.703125 508.777344 980.3125 501.714844 C 977.753906 494.152344 974.652344 494.945312 1006.722656 494.945312 L 1034.625 494.945312 L 1034.261719 487.375 C 1033.828125 478.359375 1032.699219 473.554688 1029.378906 466.582031 C 1026.539062 460.625 1020.792969 454.410156 1015.449219 451.515625 C 1007.570312 447.246094 994.160156 446.058594 985 448.816406 M 1089.828125 448.289062 C 1084.585938 450.289062 1078.652344 456.8125 1074.085938 465.589844 L 1071.835938 469.914062 L 1071.5 448.59375 L 1050.515625 448.59375 L 1050.515625 532.03125 L 1071.421875 532.03125 L 1071.648438 510.246094 L 1071.878906 488.457031 L 1073.863281 483.488281 C 1076.136719 477.789062 1080.484375 472.421875 1084.945312 469.804688 C 1090.226562 466.714844 1096.910156 468.003906 1103.820312 473.445312 C 1105.941406 475.117188 1106.171875 475.175781 1106.539062 474.140625 C 1106.757812 473.515625 1108.441406 469.125 1110.28125 464.382812 L 1113.628906 455.761719 L 1111.273438 453.75 C 1109.980469 452.644531 1107.257812 450.84375 1105.226562 449.746094 C 1102.175781 448.101562 1100.730469 447.71875 1096.882812 447.5625 C 1093.832031 447.433594 1091.40625 447.683594 1089.828125 448.289062 M 992.304688 463.011719 C 985.71875 464.875 981.46875 470.179688 979.472656 479.03125 L 978.949219 481.351562 L 1014.835938 481.351562 L 1014.4375 478.464844 C 1013.972656 475.0625 1011.449219 469.285156 1009.53125 467.230469 C 1005.632812 463.054688 998.414062 461.289062 992.304688 463.011719 M 483.316406 464.578125 C 477.367188 466.632812 474.320312 469.386719 471.207031 475.53125 C 467.285156 483.269531 467.304688 497.257812 471.242188 505.3125 C 475.039062 513.074219 480.210938 516.617188 488.382812 517.054688 C 502.511719 517.808594 510.90625 507.730469 510.933594 489.976562 C 510.953125 476.519531 505.785156 467.601562 496.261719 464.660156 C 491.363281 463.144531 487.527344 463.121094 483.316406 464.578125 M 809.777344 464.25 C 805.710938 465.601562 803.667969 466.890625 800.980469 469.808594 C 796.304688 474.882812 794.039062 481.570312 794.039062 490.3125 C 794.039062 501.777344 798.410156 510.933594 805.84375 515.050781 C 808.902344 516.746094 809.640625 516.886719 815.339844 516.886719 C 820.847656 516.886719 821.859375 516.707031 824.609375 515.242188 C 832.84375 510.855469 836.664062 502.894531 836.664062 490.117188 C 836.664062 477.03125 832.484375 468.9375 823.789062 465.183594 C 820.144531 463.609375 813.109375 463.144531 809.777344 464.25 M 367.019531 564.734375 C 366.652344 564.960938 365.546875 567.082031 364.5625 569.449219 C 362.777344 573.726562 346.429688 611.238281 339.921875 625.976562 C 338.042969 630.226562 336.367188 634.066406 336.191406 634.511719 C 335.949219 635.125 336.574219 635.277344 338.753906 635.128906 L 341.640625 634.9375 L 351.914062 611.453125 L 368.230469 611.296875 L 384.550781 611.140625 L 389.75 623.195312 L 394.949219 635.246094 L 397.628906 635.246094 C 399.101562 635.246094 400.308594 635.121094 400.308594 634.96875 C 400.308594 634.710938 394.472656 621.1875 383.625 596.308594 C 381.328125 591.039062 377.308594 581.820312 374.691406 575.820312 C 370.042969 565.164062 368.929688 563.554688 367.019531 564.734375 M 792.78125 564.597656 C 785.558594 565.804688 776.980469 570.917969 772.074219 576.9375 C 766.21875 584.128906 764.101562 590.367188 764.136719 600.328125 C 764.160156 606.03125 764.429688 607.90625 765.8125 611.964844 C 767.949219 618.21875 770.621094 622.324219 775.5 626.835938 C 782.75 633.535156 791.375 636.375 802.359375 635.675781 C 808.464844 635.285156 812.523438 634.234375 818.882812 631.390625 L 823.066406 629.519531 L 823.066406 623.488281 L 819.449219 625.3125 C 803.925781 633.148438 788.832031 632.25 778.945312 622.898438 C 772.964844 617.242188 769.90625 609.613281 769.921875 600.371094 C 769.933594 590.800781 772.605469 583.8125 778.582031 577.703125 C 787.980469 568.097656 801.757812 566.730469 817.4375 573.839844 C 819.949219 574.980469 822.105469 575.914062 822.226562 575.914062 C 822.347656 575.914062 822.449219 574.542969 822.449219 572.867188 L 822.449219 569.824219 L 817.65625 567.976562 C 809.375 564.789062 799.589844 563.457031 792.78125 564.597656 M 679.058594 569.113281 L 679.058594 573.441406 L 684 573.441406 L 684 564.789062 L 679.058594 564.789062 Z M 1002.304688 598.765625 L 1002.304688 632.738281 L 1006.785156 634.148438 C 1010.324219 635.261719 1012.695312 635.554688 1018.066406 635.546875 C 1024.226562 635.539062 1025.226562 635.375 1028.710938 633.773438 C 1033.226562 631.695312 1038.207031 626.777344 1039.980469 622.640625 C 1044.257812 612.660156 1042.773438 600.675781 1036.421875 593.910156 C 1032.53125 589.761719 1028.867188 588.195312 1023.011719 588.171875 C 1017.730469 588.152344 1012.6875 590.058594 1009.257812 593.375 L 1007.25 595.316406 L 1007.25 564.789062 L 1002.304688 564.789062 Z M 1052.78125 565.199219 C 1052.554688 565.425781 1052.367188 567.375 1052.367188 569.527344 L 1052.367188 573.441406 L 1057.3125 573.441406 L 1057.3125 564.789062 L 1055.253906 564.789062 C 1054.121094 564.789062 1053.007812 564.972656 1052.78125 565.199219 M 1070.910156 600.019531 L 1070.910156 635.246094 L 1075.855469 635.246094 L 1075.855469 564.789062 L 1070.910156 564.789062 Z M 982.921875 566.796875 C 982.441406 567.5625 980.210938 571.050781 977.960938 574.550781 C 975.714844 578.050781 973.875 581.042969 973.875 581.195312 C 973.875 581.351562 974.636719 581.472656 975.574219 581.46875 C 976.90625 581.464844 978.277344 580.367188 981.945312 576.371094 C 989.367188 568.285156 991.179688 566.210938 991.179688 565.796875 C 991.179688 565.582031 989.515625 565.40625 987.484375 565.40625 C 984.324219 565.40625 983.664062 565.609375 982.921875 566.796875 M 937.1875 575.542969 C 935.699219 577.496094 935.554688 578.183594 935.554688 583.289062 L 935.554688 588.894531 L 923.8125 588.894531 L 923.8125 593.21875 L 935.554688 593.21875 L 935.554688 611.359375 C 935.554688 629.191406 935.578125 629.539062 936.957031 631.601562 C 939.703125 635.710938 945.132812 636.917969 951.550781 634.84375 C 954.632812 633.851562 954.714844 633.761719 954.714844 631.445312 C 954.714844 628.761719 954.703125 628.757812 951.316406 629.976562 C 947.761719 631.257812 944.019531 631.160156 942.265625 629.742188 C 940.808594 628.5625 940.808594 628.542969 940.5 610.890625 L 940.1875 593.21875 L 952.242188 593.21875 L 952.242188 588.894531 L 940.535156 588.894531 L 940.363281 581.371094 C 940.253906 576.578125 939.941406 573.769531 939.507812 573.625 C 939.132812 573.5 938.089844 574.363281 937.1875 575.542969 M 364.890625 581.320312 C 362.636719 586.582031 360.363281 591.835938 358.070312 597.082031 L 354.089844 606.199219 L 382.339844 606.199219 L 380.273438 601.410156 C 372.253906 582.800781 368.582031 574.675781 368.1875 574.675781 C 367.933594 574.675781 366.453125 577.667969 364.890625 581.320312 M 415.761719 588.375 C 408.527344 589.683594 403.675781 596.535156 405.214844 603.277344 C 406.203125 607.597656 408.285156 609.4375 417.121094 613.800781 C 423.273438 616.839844 425.613281 618.320312 426.421875 619.695312 C 429.480469 624.886719 425.179688 630.933594 418.449219 630.914062 C 415.390625 630.90625 410.601562 629.621094 407.261719 627.914062 L 404.636719 626.570312 L 404.636719 629.253906 C 404.636719 631.796875 404.773438 632.007812 407.261719 633.230469 C 420.925781 639.949219 434.382812 632.738281 431.722656 620.128906 C 430.824219 615.867188 427.378906 612.597656 420.984375 609.933594 C 412.542969 606.421875 409.582031 603.960938 409.582031 600.46875 C 409.582031 597.59375 411.191406 595.300781 414.25 593.820312 C 417.84375 592.082031 421.6875 592.417969 426.375 594.882812 C 428.1875 595.832031 429.875 596.707031 430.132812 596.820312 C 430.386719 596.9375 430.59375 595.792969 430.59375 594.28125 L 430.59375 591.535156 L 427.039062 589.976562 C 422.867188 588.144531 419.601562 587.683594 415.761719 588.375 M 450.683594 588.242188 C 444.21875 589.332031 439.21875 594.867188 439.261719 600.882812 C 439.28125 603.726562 441.308594 607.675781 443.660156 609.460938 C 444.804688 610.328125 448.65625 612.410156 452.226562 614.089844 C 460.105469 617.796875 461.703125 619.335938 461.703125 623.203125 C 461.703125 625.433594 461.347656 626.375 459.953125 627.828125 C 456.492188 631.445312 450.816406 631.753906 443.28125 628.742188 C 441.179688 627.902344 439.257812 627.214844 439.007812 627.214844 C 438.757812 627.214844 438.640625 628.25 438.746094 629.519531 C 438.925781 631.644531 439.210938 631.957031 442.476562 633.570312 C 447.121094 635.863281 453.246094 636.449219 457.578125 635.007812 C 460.921875 633.898438 464.710938 630.496094 465.789062 627.636719 C 466.839844 624.84375 466.574219 620 465.222656 617.351562 C 463.589844 614.152344 461.308594 612.617188 451.347656 608.011719 C 445.714844 605.410156 444.191406 603.734375 444.191406 600.15625 C 444.191406 597.785156 444.507812 597.085938 446.359375 595.339844 C 450.03125 591.875 455.664062 591.910156 462.039062 595.433594 C 463.527344 596.253906 464.847656 596.929688 464.976562 596.929688 C 465.101562 596.929688 465.207031 595.730469 465.207031 594.269531 C 465.207031 591.742188 465.074219 591.546875 462.492188 590.292969 C 461 589.566406 458.703125 588.792969 457.394531 588.570312 C 456.289062 588.382812 455.183594 588.191406 454.082031 587.996094 C 453.570312 587.902344 452.042969 588.011719 450.683594 588.242188 M 489.757812 588.347656 C 483.761719 589.257812 478.832031 593.492188 475.480469 600.605469 C 473.730469 604.316406 473.570312 605.191406 473.5625 611.144531 C 473.550781 616.515625 473.804688 618.308594 475.035156 621.550781 C 476.949219 626.589844 481.386719 631.515625 486.101562 633.832031 C 489.164062 635.332031 490.34375 635.558594 495.183594 635.554688 C 501.667969 635.554688 504.75 634.753906 508.878906 631.996094 C 511.671875 630.128906 511.882812 629.800781 512.058594 627.082031 L 512.246094 624.171875 L 508.660156 626.5625 C 504 629.664062 498.824219 631.171875 494.246094 630.753906 C 485.996094 630.007812 479.316406 623.046875 478.398438 614.234375 L 478.007812 610.523438 L 512.796875 610.523438 L 512.796875 608.117188 C 512.796875 603.492188 510.546875 597.886719 507.234375 594.261719 C 502.617188 589.210938 496.867188 587.265625 489.757812 588.347656 M 531.539062 588.34375 C 526.660156 589.230469 522.988281 592.097656 521.175781 596.445312 C 519.910156 599.46875 519.980469 602.226562 521.398438 605.34375 C 522.878906 608.605469 525.246094 610.371094 532.882812 613.910156 C 536.285156 615.484375 539.828125 617.503906 540.757812 618.394531 C 543.015625 620.554688 543.496094 623.375 542.101562 626.308594 C 539.796875 631.167969 532.761719 632.148438 524.449219 628.769531 C 522.34375 627.914062 520.527344 627.214844 520.417969 627.214844 C 520.304688 627.214844 520.214844 628.265625 520.214844 629.550781 C 520.214844 632.265625 521.460938 633.25 526.972656 634.875 C 533.550781 636.816406 539.183594 635.914062 543.222656 632.269531 C 546.296875 629.496094 547.410156 627 547.410156 622.882812 C 547.410156 616.796875 544.003906 613.066406 535.046875 609.335938 C 527.289062 606.105469 525.195312 604.144531 525.171875 600.089844 C 525.160156 597.785156 525.480469 597.078125 527.328125 595.339844 C 530.996094 591.875 536.628906 591.910156 543.007812 595.433594 C 544.492188 596.253906 545.816406 596.929688 545.941406 596.929688 C 546.070312 596.929688 546.171875 595.714844 546.171875 594.230469 C 546.171875 591.539062 546.164062 591.53125 542.621094 589.976562 C 538.503906 588.171875 535.179688 587.679688 531.539062 588.34375 M 565.835938 588.316406 C 559.757812 589.289062 554.824219 594.738281 554.824219 600.480469 C 554.824219 606.441406 557.113281 608.925781 566.992188 613.699219 C 571.269531 615.765625 575.078125 618.039062 575.800781 618.960938 C 577.542969 621.175781 577.515625 625.253906 575.734375 627.511719 C 572.832031 631.203125 567.652344 631.832031 560.699219 629.335938 C 553.476562 626.746094 554.097656 626.734375 554.320312 629.449219 C 554.503906 631.675781 554.761719 631.96875 557.933594 633.558594 C 562.109375 635.648438 568.355469 636.390625 572.351562 635.273438 C 581.570312 632.691406 585.132812 621.394531 578.78125 614.886719 C 577.625 613.703125 573.546875 611.28125 569.207031 609.199219 C 561.085938 605.300781 559.648438 603.964844 559.648438 600.328125 C 559.648438 593.433594 567.910156 590.648438 576.140625 594.769531 C 578.175781 595.785156 580.054688 596.710938 580.3125 596.824219 C 580.574219 596.9375 580.785156 595.910156 580.785156 594.542969 C 580.785156 591.675781 579.726562 590.664062 575.25 589.265625 C 571.203125 588 569.113281 587.789062 565.835938 588.316406 M 607.664062 588.292969 C 603.296875 588.898438 598.863281 591.335938 595.40625 595.03125 C 591.855469 598.828125 590.339844 602.042969 589.335938 607.902344 C 587.949219 615.988281 590.347656 623.835938 595.902344 629.40625 C 600.792969 634.304688 603.941406 635.558594 611.378906 635.554688 C 617.246094 635.554688 617.757812 635.445312 621.46875 633.4375 C 630.101562 628.757812 634.519531 619.515625 633.328125 608.613281 C 631.871094 595.289062 620.738281 586.472656 607.664062 588.292969 M 661.894531 588.3125 C 658.734375 588.984375 654.972656 591.941406 651.898438 596.167969 L 649.082031 600.046875 L 648.902344 594.46875 L 648.726562 588.894531 L 643.828125 588.894531 L 643.828125 635.246094 L 648.773438 635.246094 L 648.773438 605.496094 L 650.714844 602.601562 C 654.929688 596.328125 658.792969 593.21875 662.378906 593.21875 C 664.582031 593.21875 666.082031 593.910156 669.222656 596.371094 L 671.441406 598.109375 L 672.769531 595.753906 C 674.019531 593.523438 674.035156 593.34375 673.023438 592.484375 C 668.742188 588.84375 665.363281 587.578125 661.894531 588.3125 M 707.410156 588.304688 C 704.167969 588.832031 699.117188 590.917969 697.46875 592.410156 C 696.765625 593.046875 696.363281 594.292969 696.363281 595.816406 L 696.363281 598.222656 L 699.058594 596.367188 C 703.53125 593.292969 706.371094 592.433594 711.171875 592.707031 C 714.644531 592.902344 715.761719 593.230469 717.039062 594.429688 C 718.964844 596.238281 719.839844 599.1875 719.84375 603.882812 C 719.847656 607.429688 719.847656 607.433594 717.96875 607.433594 C 714.835938 607.433594 706.730469 609.289062 703.84375 610.664062 C 697.59375 613.644531 694.316406 618.328125 694.308594 624.296875 C 694.304688 627.25 694.617188 628.324219 696.113281 630.476562 C 700.519531 636.820312 709.167969 637.554688 717.023438 632.253906 L 719.847656 630.34375 L 719.847656 631.910156 C 719.847656 635.863281 722.316406 636.875 726.519531 634.652344 C 730.738281 632.414062 731.707031 631.339844 731.484375 629.144531 L 731.285156 627.132812 L 728.8125 629.011719 C 727.453125 630.042969 726.007812 630.894531 725.601562 630.902344 C 725.054688 630.917969 724.816406 626.539062 724.675781 613.769531 C 724.488281 596.996094 724.453125 596.5625 723.007812 594.042969 C 720.425781 589.535156 714.109375 587.210938 707.410156 588.304688 M 847.976562 588.3125 C 841.128906 589.246094 834.683594 594.1875 831.316406 601.089844 C 829.722656 604.359375 829.578125 605.238281 829.566406 611.761719 C 829.554688 618.300781 829.699219 619.179688 831.332031 622.714844 C 833.417969 627.234375 838.308594 632.179688 842.6875 634.199219 C 845.058594 635.292969 846.757812 635.554688 851.496094 635.554688 C 856.675781 635.558594 857.785156 635.351562 860.886719 633.832031 C 873.023438 627.871094 877.421875 611.148438 870.128906 598.714844 C 865.558594 590.917969 857.304688 587.046875 847.976562 588.3125 M 899.820312 588.363281 C 896.417969 588.972656 893.5 590.785156 890.753906 593.992188 L 888.582031 596.53125 L 888.582031 588.894531 L 883.636719 588.894531 L 883.636719 635.246094 L 888.582031 635.246094 L 888.582031 602.675781 L 890.351562 600.265625 C 894.183594 595.050781 897.546875 593.21875 903.304688 593.21875 C 907.777344 593.21875 910.445312 594.808594 912.6875 598.804688 C 914.210938 601.53125 914.234375 601.761719 914.429688 618.40625 L 914.628906 635.246094 L 919.585938 635.246094 L 919.367188 617.789062 C 919.179688 602.773438 918.996094 599.984375 918.0625 597.886719 C 914.773438 590.519531 907.886719 586.921875 899.820312 588.363281 M 971.546875 588.382812 C 969.753906 588.660156 966.625 589.726562 964.59375 590.753906 C 961.003906 592.5625 960.894531 592.691406 960.894531 595.082031 C 960.894531 597.636719 961.472656 598.15625 962.683594 596.699219 C 963.070312 596.234375 965.082031 595.089844 967.152344 594.160156 C 970.351562 592.726562 971.558594 592.503906 975.132812 592.707031 C 981.558594 593.070312 983.761719 595.800781 983.761719 603.398438 L 983.761719 607.433594 L 981.882812 607.433594 C 978.332031 607.433594 970.554688 609.386719 967.042969 611.160156 C 961.296875 614.058594 958.421875 618.382812 958.421875 624.128906 C 958.421875 633.117188 967.0625 638.210938 976.347656 634.691406 C 978.214844 633.984375 980.578125 632.730469 981.601562 631.910156 L 983.453125 630.417969 L 984.074219 632.609375 C 985.207031 636.632812 987.484375 636.800781 992.796875 633.25 C 995.234375 631.617188 995.851562 630.84375 996.007812 629.222656 C 996.117188 628.117188 996.054688 627.214844 995.871094 627.214844 C 995.691406 627.214844 994.28125 628.101562 992.742188 629.1875 C 990.972656 630.433594 989.722656 630.945312 989.351562 630.578125 C 989.019531 630.242188 988.6875 622.605469 988.582031 612.949219 L 988.398438 595.90625 L 986.738281 593.402344 C 983.949219 589.1875 978.34375 587.335938 971.546875 588.382812 M 679.058594 612.070312 L 679.058594 635.246094 L 684 635.246094 L 684 588.894531 L 679.058594 588.894531 Z M 1052.515625 611.914062 L 1052.675781 634.9375 L 1054.996094 635.128906 L 1057.3125 635.324219 L 1057.3125 588.894531 L 1052.351562 588.894531 Z M 1016.066406 593.816406 C 1014.628906 594.46875 1012.058594 596.308594 1010.351562 597.90625 L 1007.25 600.804688 L 1007.25 629.019531 L 1009.875 629.792969 C 1011.320312 630.21875 1014.867188 630.574219 1017.757812 630.589844 C 1022.292969 630.609375 1023.492188 630.375 1026.546875 628.875 C 1033.371094 625.523438 1036.917969 619.25 1036.917969 610.523438 C 1036.917969 604.199219 1035.375 599.949219 1031.824219 596.480469 C 1030.375 595.066406 1028.40625 593.613281 1027.449219 593.253906 C 1024.675781 592.210938 1018.984375 592.492188 1016.066406 593.816406 M 487.605469 594.238281 C 484.84375 595.601562 481.96875 598.605469 480.597656 601.5625 C 478.335938 606.433594 477.691406 606.199219 493.328125 606.199219 C 500.976562 606.199219 507.234375 606.09375 507.234375 605.96875 C 507.234375 605.839844 506.808594 604.519531 506.285156 603.03125 C 503.84375 596.09375 500.085938 593.210938 493.507812 593.234375 C 491.214844 593.242188 488.796875 593.65625 487.605469 594.238281 M 603.789062 594.8125 C 597.820312 597.785156 594.382812 604.058594 594.382812 611.96875 C 594.382812 617.6875 595.660156 621.4375 598.832031 625.042969 C 602.609375 629.335938 605.4375 630.589844 611.378906 630.601562 C 615.652344 630.609375 616.710938 630.386719 619.175781 628.9375 C 625.601562 625.160156 628.667969 619.027344 628.230469 610.835938 C 627.917969 604.9375 626.097656 600.835938 622.257812 597.367188 C 618.835938 594.273438 616 593.21875 611.117188 593.21875 C 607.914062 593.21875 606.265625 593.578125 603.789062 594.8125 M 844.390625 594.550781 C 840.765625 596.421875 837.550781 599.765625 835.933594 603.351562 C 833.871094 607.925781 833.933594 616.328125 836.0625 620.722656 C 838.261719 625.265625 842.234375 628.855469 846.40625 630.070312 C 857.890625 633.40625 868.136719 625.363281 868.394531 612.8125 C 868.511719 607.164062 867.433594 603.464844 864.574219 599.679688 C 861.257812 595.289062 856.957031 593.210938 851.273438 593.246094 C 848.066406 593.265625 846.1875 593.625 844.390625 594.550781 M 709.527344 612.914062 C 701.457031 615.699219 697.425781 621.402344 699.691406 626.828125 C 702.21875 632.878906 710.28125 633.117188 717.839844 627.359375 L 719.847656 625.832031 L 719.847656 611.761719 L 716.296875 611.78125 C 714.339844 611.792969 711.296875 612.300781 709.527344 612.914062 M 973.460938 612.90625 C 967.074219 615.113281 963.371094 619.25 963.371094 624.1875 C 963.363281 632.207031 973.949219 634.152344 981.753906 627.5625 L 983.761719 625.867188 L 983.761719 611.761719 L 980.210938 611.78125 C 978.253906 611.792969 975.21875 612.296875 973.460938 612.90625 M 871.121094 635.066406 C 871.886719 635.214844 873.136719 635.214844 873.902344 635.066406 C 874.667969 634.917969 874.042969 634.796875 872.511719 634.796875 C 870.980469 634.796875 870.355469 634.917969 871.121094 635.066406 "/></g></g></svg>